<?xml version="1.0" encoding="UTF-8"?>
<svg xmlns="http://www.w3.org/2000/svg" xmlns:xlink="http://www.w3.org/1999/xlink" width="32pt" height="32pt" viewBox="0 0 32 32" version="1.1">
<g id="surface1">
<rect x="0" y="0" width="32" height="32" style="fill:rgb(94.117647%,94.117647%,94.117647%);fill-opacity:1;stroke:none;"/>
<path style=" stroke:none;fill-rule:nonzero;fill:rgb(0.392157%,8.627451%,15.294118%);fill-opacity:1;" d="M 18.5625 23.714844 L 8.589844 23.714844 C 8.421875 23.714844 8.285156 23.578125 8.285156 23.410156 C 8.285156 21.4375 8.472656 20.253906 9.375 19.351562 C 10.226562 18.5 11.683594 17.957031 14.214844 17.269531 L 14.214844 16.71875 C 13.371094 16.28125 12.738281 15.230469 12.445312 14.015625 C 12.261719 13.265625 12.207031 12.449219 12.3125 11.675781 C 12.417969 10.886719 12.6875 10.140625 13.160156 9.546875 C 13.765625 8.785156 14.691406 8.285156 16 8.285156 C 17.308594 8.285156 18.234375 8.785156 18.839844 9.546875 C 19.3125 10.140625 19.582031 10.886719 19.6875 11.675781 C 19.792969 12.449219 19.738281 13.265625 19.554688 14.015625 C 19.261719 15.230469 18.628906 16.28125 17.785156 16.71875 L 17.785156 17.269531 C 20.316406 17.957031 21.773438 18.5 22.625 19.351562 C 23.527344 20.253906 23.714844 21.4375 23.714844 23.410156 C 23.714844 23.578125 23.578125 23.714844 23.410156 23.714844 Z M 8.902344 23.101562 L 23.097656 23.101562 C 23.078125 21.484375 22.898438 20.492188 22.1875 19.785156 C 21.410156 19.007812 19.96875 18.492188 17.414062 17.804688 C 17.273438 17.777344 17.167969 17.65625 17.167969 17.503906 L 17.167969 16.519531 C 17.167969 16.398438 17.242188 16.28125 17.363281 16.234375 C 18.105469 15.945312 18.683594 14.996094 18.957031 13.871094 C 19.121094 13.191406 19.175781 12.453125 19.078125 11.753906 C 18.988281 11.074219 18.757812 10.433594 18.359375 9.933594 C 17.867188 9.308594 17.097656 8.898438 16 8.898438 C 14.902344 8.898438 14.132812 9.308594 13.640625 9.933594 C 13.242188 10.433594 13.011719 11.074219 12.921875 11.753906 C 12.824219 12.453125 12.878906 13.191406 13.042969 13.871094 C 13.3125 14.988281 13.886719 15.929688 14.621094 16.226562 C 14.742188 16.269531 14.832031 16.386719 14.832031 16.519531 L 14.832031 17.503906 C 14.832031 17.640625 14.738281 17.765625 14.605469 17.800781 C 12.039062 18.492188 10.59375 19.007812 9.8125 19.785156 C 9.101562 20.492188 8.921875 21.484375 8.902344 23.101562 Z M 8.902344 23.101562 "/>
</g>
</svg>
